<svg width="78" height="78" viewBox="0 0 78 78" fill="none" xmlns="http://www.w3.org/2000/svg">
<g clip-path="url(#clip0_12_2323)">
<path d="M55.25 10.855C60.1907 13.7075 64.2934 17.8103 67.1459 22.7509C69.9984 27.6916 71.5 33.2961 71.5 39.001C71.5 44.706 69.9982 50.3105 67.1457 55.2511C64.2931 60.1917 60.1903 64.2944 55.2496 67.1469C50.3089 69.9993 44.7045 71.5009 38.9995 71.5008C33.2945 71.5007 27.6901 69.9989 22.7495 67.1463C17.8089 64.2938 13.7062 60.1909 10.8538 55.2502C8.00143 50.3095 6.49986 44.705 6.5 39L6.51625 37.947C6.69826 32.3342 8.33153 26.8644 11.2568 22.0707C14.1821 17.2771 18.2996 13.3232 23.2079 10.5946C28.1162 7.86602 33.6477 6.45579 39.2633 6.50142C44.8788 6.54706 50.3867 8.04699 55.25 10.855ZM54.9705 27.3195C56.1795 24.5993 53.4007 21.8205 50.6805 23.0295L21.4305 36.0295L21.0795 36.2082C18.642 37.6382 19.0938 41.4375 21.9602 42.1557L33.0688 44.928L35.8475 56.0397C36.595 59.0362 40.716 59.3937 41.9705 56.5695L54.9705 27.3195Z" fill="#AF52DE"/>
</g>
<defs>
<clipPath id="clip0_12_2323">
<rect width="78" height="78" fill="white"/>
</clipPath>
</defs>
</svg>
