<svg width="146" height="146" viewBox="0 0 146 146" fill="none" xmlns="http://www.w3.org/2000/svg">
<g clip-path="url(#clip0_18_30)">
<path d="M91.25 42.5833H54.75C51.5232 42.5833 48.4286 43.8652 46.1469 46.1468C43.8652 48.4285 42.5833 51.5232 42.5833 54.75V91.25C42.5833 94.4768 43.8652 97.5714 46.1469 99.8531C48.4286 102.135 51.5232 103.417 54.75 103.417H91.25C94.4768 103.417 97.5714 102.135 99.8531 99.8531C102.135 97.5714 103.417 94.4768 103.417 91.25V54.75C103.417 51.5232 102.135 48.4285 99.8531 46.1468C97.5714 43.8652 94.4768 42.5833 91.25 42.5833Z" fill="#34C759"/>
<path d="M24.3333 42.5833C25.8838 42.585 27.3752 43.1787 28.5027 44.2431C29.6301 45.3075 30.3086 46.7623 30.3995 48.3101C30.4903 49.858 29.9867 51.3821 28.9916 52.5711C27.9964 53.7601 26.5847 54.5243 25.0451 54.7074L24.3333 54.75H18.25C16.6995 54.7483 15.2081 54.1546 14.0807 53.0902C12.9532 52.0258 12.2747 50.571 12.1839 49.0232C12.093 47.4753 12.5966 45.9512 13.5918 44.7622C14.5869 43.5732 15.9986 42.809 17.5382 42.6259L18.25 42.5833H24.3333Z" fill="#34C759"/>
<path d="M24.3333 91.25C25.8838 91.2517 27.3752 91.8454 28.5027 92.9098C29.6301 93.9742 30.3086 95.429 30.3995 96.9768C30.4903 98.5247 29.9867 100.049 28.9916 101.238C27.9964 102.427 26.5847 103.191 25.0451 103.374L24.3333 103.417H18.25C16.6995 103.415 15.2081 102.821 14.0807 101.757C12.9532 100.692 12.2747 99.2377 12.1839 97.6898C12.093 96.142 12.5966 94.6179 13.5918 93.4289C14.5869 92.2398 15.9986 91.4757 17.5382 91.2926L18.25 91.25H24.3333Z" fill="#34C759"/>
<path d="M48.6667 12.1667C50.1567 12.1669 51.5948 12.7139 52.7083 13.704C53.8217 14.6942 54.5331 16.0585 54.7074 17.5383L54.75 18.25V24.3334C54.7483 25.8839 54.1546 27.3752 53.0902 28.5027C52.0258 29.6301 50.571 30.3086 49.0232 30.3995C47.4753 30.4904 45.9512 29.9867 44.7622 28.9916C43.5732 27.9964 42.8091 26.5848 42.6259 25.0451L42.5833 24.3334V18.25C42.5833 16.6366 43.2243 15.0893 44.3651 13.9485C45.506 12.8076 47.0533 12.1667 48.6667 12.1667Z" fill="#34C759"/>
<path d="M97.3333 12.1667C98.8233 12.1669 100.261 12.7139 101.375 13.704C102.488 14.6942 103.2 16.0585 103.374 17.5383L103.417 18.25V24.3334C103.415 25.8839 102.821 27.3752 101.757 28.5027C100.692 29.6301 99.2377 30.3086 97.6898 30.3995C96.142 30.4904 94.6179 29.9867 93.4289 28.9916C92.2398 27.9964 91.4757 26.5848 91.2926 25.0451L91.25 24.3334V18.25C91.25 16.6366 91.8909 15.0893 93.0318 13.9485C94.1726 12.8076 95.7199 12.1667 97.3333 12.1667Z" fill="#34C759"/>
<path d="M127.75 42.5833C129.301 42.585 130.792 43.1787 131.919 44.2431C133.047 45.3075 133.725 46.7623 133.816 48.3101C133.907 49.858 133.403 51.3821 132.408 52.5711C131.413 53.7601 130.001 54.5243 128.462 54.7074L127.75 54.75H121.667C120.116 54.7483 118.625 54.1546 117.497 53.0902C116.37 52.0258 115.691 50.571 115.601 49.0232C115.51 47.4753 116.013 45.9512 117.008 44.7622C118.004 43.5732 119.415 42.809 120.955 42.6259L121.667 42.5833H127.75Z" fill="#34C759"/>
<path d="M127.75 91.25C129.301 91.2517 130.792 91.8454 131.919 92.9098C133.047 93.9742 133.725 95.429 133.816 96.9768C133.907 98.5247 133.403 100.049 132.408 101.238C131.413 102.427 130.001 103.191 128.462 103.374L127.75 103.417H121.667C120.116 103.415 118.625 102.821 117.497 101.757C116.37 100.692 115.691 99.2377 115.601 97.6898C115.51 96.142 116.013 94.6179 117.008 93.4289C118.004 92.2398 119.415 91.4757 120.955 91.2926L121.667 91.25H127.75Z" fill="#34C759"/>
<path d="M48.6667 115.583C50.1567 115.584 51.5948 116.131 52.7083 117.121C53.8217 118.111 54.5331 119.475 54.7074 120.955L54.75 121.667V127.75C54.7483 129.3 54.1546 130.792 53.0902 131.919C52.0258 133.047 50.571 133.725 49.0232 133.816C47.4753 133.907 45.9512 133.403 44.7622 132.408C43.5732 131.413 42.8091 130.001 42.6259 128.462L42.5833 127.75V121.667C42.5833 120.053 43.2243 118.506 44.3651 117.365C45.506 116.224 47.0533 115.583 48.6667 115.583Z" fill="#34C759"/>
<path d="M97.3333 115.583C98.8233 115.584 100.261 116.131 101.375 117.121C102.488 118.111 103.2 119.475 103.374 120.955L103.417 121.667V127.75C103.415 129.3 102.821 130.792 101.757 131.919C100.692 133.047 99.2377 133.725 97.6898 133.816C96.142 133.907 94.6179 133.403 93.4289 132.408C92.2398 131.413 91.4757 130.001 91.2926 128.462L91.25 127.75V121.667C91.25 120.053 91.8909 118.506 93.0318 117.365C94.1726 116.224 95.7199 115.583 97.3333 115.583Z" fill="#34C759"/>
</g>
<defs>
<clipPath id="clip0_18_30">
<rect width="146" height="146" fill="white"/>
</clipPath>
</defs>
</svg>
