<svg width="223" height="214" viewBox="0 0 223 214" fill="none" xmlns="http://www.w3.org/2000/svg">
<path d="M116.071 46.9507L105.267 76.933H108.523L119.327 46.9507H116.071ZM102.112 51.2769L101.275 51.8121L88.2076 60.2749L87.5052 60.7209V62.36L88.1519 62.8283L101.22 72.0493L102.112 72.6626V68.905L91.7868 61.6129L102.112 54.9341V51.2769ZM122.104 51.2769V54.9341L132.429 61.6129L122.104 68.905V72.6626L122.996 72.0493L136.063 62.8283L136.71 62.36V60.7209L136.008 60.2749L122.94 51.8121L122.104 51.2769Z" fill="url('#paint0_linear_9_75')"></path>
<path d="M16.3682 121.054C16.3682 115.546 16.6135 110.517 16.9814 106.358C17.472 99.8686 18.2079 94.7173 18.6985 91.6622L15.8776 93.8699C9.51094 99.378 5.70879 105.02 4.60494 104.284C3.62374 103.671 7.54854 97.7947 14.2831 92.1528C18.2079 88.7186 22.3669 86.0315 26.5258 84.1917C31.7886 81.7387 37.1852 80.5122 42.6933 80.5122C48.2014 80.5122 50.4091 81.7387 52.6168 84.3144C54.5792 86.6447 55.6831 89.8225 55.6831 93.6246C55.6831 97.4268 54.8245 100.359 53.1074 103.793C51.3903 107.228 48.4579 110.896 45.1463 113.84C40.1288 117.999 31.9224 123.027 18.81 124.499V126.829C19.7912 127.32 20.8951 127.688 22.2442 128.178C27.6297 130.264 34.8549 132.951 43.6745 136.017C58.7382 141.402 73.6792 146.431 73.3112 147.658C72.9433 148.761 56.8984 143.376 41.3442 137.857C32.1566 134.545 24.8087 131.858 19.6686 129.773L18.9327 129.528C19.3006 137.243 20.0365 142.138 19.3006 142.384C18.1968 142.506 16.9703 137.857 16.4797 128.546L12.5549 126.707C10.1019 125.48 8.99804 124.744 9.24334 123.518C9.36599 122.659 10.1019 122.291 11.451 122.291C12.8002 122.291 14.7626 122.291 16.3459 122.169V121.065L16.3682 121.054ZM42.7045 82.9652C34.3754 82.9652 27.0276 86.1541 21.5195 89.6998C21.1515 91.5396 20.1703 97.9062 19.4344 106.603C19.0665 111.007 18.8212 116.159 18.8212 121.912C31.0639 120.563 38.9135 115.913 43.563 111.989C50.6656 105.745 53.2412 98.3968 53.2412 93.6135C53.2412 88.8301 51.4015 82.9541 42.7045 82.9541V82.9652ZM14.0378 124.733C14.6511 125.101 15.387 125.469 16.3682 125.837V124.61C15.6323 124.733 14.7737 124.733 14.0378 124.733ZM59.7863 129.015C58.8051 129.015 57.9465 128.524 57.2106 127.788C55.4935 125.948 55.2482 121.912 55.2482 119.214C54.1444 116.761 54.1444 114.074 55.0029 112.111C55.8615 109.904 57.5786 108.554 59.7751 108.554C61.9717 108.554 62.4734 108.922 63.5773 111.498C64.3132 113.338 64.5585 115.546 64.5585 117.129C64.5585 118.712 64.3132 120.318 64.0679 121.901C65.9076 121.778 68.1153 121.165 70.4345 120.061L71.4157 122.269C68.2268 123.741 65.6623 124.354 63.5773 124.354H63.4546V124.599C62.4734 127.543 61.2469 129.004 59.7751 129.004L59.7863 129.015ZM61.6149 121.667C62.1055 118.969 62.2281 116.159 61.8602 114.074C61.4922 112.725 61.0016 111.007 59.7751 111.007C58.5486 111.007 57.5674 112.111 57.1995 112.97C56.9542 113.706 56.8315 114.564 56.8315 115.546C56.8315 120.072 60.511 121.422 61.6037 121.667H61.6149ZM57.8239 122.525C58.0692 124.12 58.4371 125.469 59.0504 126.205C59.2957 126.45 59.541 126.45 59.6636 126.573C59.9089 126.328 60.5222 125.592 61.0128 123.997C59.6636 123.752 58.6824 123.139 57.8239 122.525ZM75.8757 166.256C74.4039 166.256 73.0548 165.765 71.9509 164.784C69.2526 162.454 68.762 157.927 70.4791 152.296C72.4415 145.929 78.0723 136.128 82.4877 129.026C82.365 128.658 82.2424 128.29 82.2424 127.922C81.1385 123.875 80.0347 120.819 79.1761 119.102C79.1761 119.348 79.0535 119.716 79.0535 120.084C78.3176 122.905 77.459 126.818 74.4039 126.818C71.3488 126.818 72.5642 126.573 71.9509 124.733C71.583 123.875 71.4604 122.771 71.4604 121.299C71.4604 116.527 73.4227 109.29 77.459 109.29C81.4953 109.29 78.9308 109.658 79.4214 110.149C80.7706 111.743 80.7706 115.044 80.7706 116.516L81.8744 118.969C82.6103 120.931 83.4689 123.495 84.2048 126.194C86.4125 122.76 88.007 120.44 88.1296 120.072L90.2146 121.422L85.0745 129.383C86.1783 133.91 87.5275 140.165 87.5275 145.795C87.5275 157.436 83.0006 163.68 78.8305 165.52C77.8493 166.01 76.7454 166.256 75.8869 166.256H75.8757ZM83.3574 132.326C79.1984 139.184 74.5377 147.513 72.8206 153.021C71.4715 157.548 71.7168 161.227 73.5565 162.944C74.6604 163.925 76.2548 164.048 77.8381 163.312C81.1497 161.84 85.0633 156.332 85.0633 145.795C85.0633 135.259 84.2048 136.363 83.3462 132.326H83.3574ZM77.4702 111.743C76.6116 111.743 75.6304 112.97 75.0172 115.055C74.2813 116.895 73.9133 119.102 73.9133 121.054C73.9133 123.005 74.2813 124.12 74.4039 124.365C75.5078 124.243 76.2437 121.299 76.6116 119.47C76.8569 118.612 76.9796 117.753 77.2249 117.14C77.4702 116.404 77.8381 115.913 78.3287 115.546C78.3287 114.074 78.0835 112.357 77.5928 111.866C77.5928 111.743 77.4702 111.743 77.4702 111.743ZM95.6558 127.543C91.3742 127.543 89.0439 122.28 89.0439 117.251C89.0439 112.223 89.4118 113.449 90.1477 112.111C91.0063 110.394 92.4781 109.413 94.1952 109.413C95.9123 109.413 98.12 111.621 98.12 114.676C98.12 117.731 97.5067 118.11 96.4029 119.325C95.667 120.307 94.3178 121.288 92.2439 121.533C92.9798 123.618 94.0837 125.09 95.6781 125.09C98.7444 125.09 101.554 121.165 102.29 119.582C102.29 119.582 104.375 120.931 104.252 121.299C103.271 122.893 100.094 127.543 95.6781 127.543H95.6558ZM94.184 111.866C93.8161 111.866 92.9576 111.866 92.3443 113.215C91.731 114.319 91.4857 115.668 91.4857 117.263C91.4857 118.857 91.4857 118.612 91.6084 119.225C92.8349 119.102 93.8161 118.612 94.552 117.753C95.2879 117.017 95.6558 115.791 95.6558 114.687C95.6558 113.583 95.0426 111.866 94.184 111.866ZM106.739 131.1C105.267 131.1 104.899 129.26 104.654 128.524C104.531 127.666 104.286 126.439 104.163 124.845C103.918 122.392 103.918 119.827 103.918 119.704C103.918 119.091 105.88 119.214 106.371 119.704C106.371 119.704 106.371 121.544 106.494 123.507V120.686C106.494 113.951 106.494 109.658 107.965 108.198C108.333 107.83 108.824 107.707 109.437 107.707C111.277 107.707 111.768 110.037 112.626 113.706C112.994 115.668 113.485 117.865 114.221 119.582C114.589 120.563 115.324 121.79 116.06 121.79C116.796 121.79 118.145 120.686 118.759 120.072L120.598 121.544C120.353 121.912 118.268 124.243 116.071 124.243C113.875 124.243 112.392 121.422 112.024 120.563C111.165 118.723 110.675 116.404 110.184 114.319L109.448 110.885L109.08 113.583C108.958 115.668 108.958 118.233 108.958 120.686C109.08 127.052 108.958 129.628 107.977 130.609C106.995 131.59 107.241 131.1 106.75 131.1H106.739ZM138.695 153.389C139.063 152.285 153.513 159.019 162.578 148.003C170.049 138.816 171.52 122.035 171.398 109.669C171.398 98.7648 170.171 89.5772 169.19 85.0503C168.699 87.5033 168.086 91.2943 167.596 94.8511C166.246 103.425 164.529 114.085 162.21 122.782C159.389 133.809 156.212 138.949 152.287 138.949C148.362 138.949 149.711 138.459 148.73 137.355C145.296 133.798 143.099 124.376 142.118 109.302C141.627 102.199 141.627 95.587 141.627 91.5396V87.7374C141.995 87.3695 144.08 87.2468 144.08 87.8601C144.08 88.4733 144.08 90.1904 143.958 91.5396C143.958 104.641 145.062 129.996 150.447 135.638C151.06 136.251 151.673 136.496 152.287 136.496C153.758 136.496 156.568 134.657 159.88 122.169C162.088 113.594 163.805 103.058 165.143 94.4832C165.756 90.5584 166.247 87.258 166.737 84.805C166.982 83.4558 167.228 82.4746 167.473 81.8614C167.596 81.2481 168.086 79.899 169.19 79.899C170.294 79.899 170.539 80.8802 170.662 81.1255C171.398 82.7199 172.134 86.8789 172.747 92.0302C173.36 96.4344 173.973 103.425 173.851 111.509C173.728 124.488 172.011 141.759 163.314 150.701C152.9 161.606 138.204 154.626 138.695 153.4V153.389ZM195.448 129.996C194.344 129.996 192.873 129.505 192.014 127.175C191.646 125.948 191.401 124.354 191.278 122.893C191.278 122.28 191.156 121.544 191.156 120.931C190.788 121.422 190.42 122.28 190.052 122.893C188.948 125.101 187.353 128.279 184.298 128.279C181.243 128.279 182.704 128.034 182.091 126.562C181.845 125.826 181.723 124.845 181.723 123.741C181.723 119.091 184.053 110.394 188.58 110.394C193.107 110.394 193.107 114.676 192.014 115.044C191.156 115.412 190.788 112.836 188.58 112.836C186.372 112.836 186.74 114.063 185.882 115.902C185.023 117.742 184.41 120.061 184.287 122.146C184.042 124.354 184.287 125.458 184.41 125.826C185.882 125.581 186.985 123.618 187.844 121.778C188.825 119.816 189.806 118.099 191.401 118.099C192.995 118.099 192.995 118.344 193.486 120.061C193.609 120.797 193.731 121.656 193.731 122.637C193.854 123.986 193.977 125.458 194.344 126.439C194.712 127.543 195.203 127.543 195.448 127.543C195.816 127.543 196.92 126.807 198.147 124.109C199.128 122.146 199.741 120.061 199.741 120.061C199.741 120.061 201.949 121.165 201.826 121.778L200.354 125.213C198.76 128.401 197.165 129.985 195.46 129.985L195.448 129.996ZM218.54 121.667C216.823 123.016 214.983 123.752 213.645 123.752C211.683 123.752 210.702 122.525 210.579 122.403C210.334 124.243 209.843 125.714 209.107 126.562C208.371 127.298 207.513 127.666 206.531 127.666H206.409C204.692 127.666 202.361 126.316 201.391 120.808C200.901 117.865 200.655 113.828 200.778 112.725C200.901 112.111 203.231 112.479 203.231 112.847C203.354 115.546 203.476 125.213 206.543 125.213C209.609 125.213 207.033 125.09 207.279 124.967C208.505 123.495 208.505 118.601 208.014 114.921C207.892 114.063 210.345 113.817 210.467 114.553C210.958 117.374 212.062 121.288 213.656 121.288C215.251 121.288 215.373 120.92 216.355 120.307C216.6 120.061 218.685 121.533 218.562 121.656L218.54 121.667Z" fill="url('#paint1_linear_9_75')"></path>
<defs>
<linearGradient id="paint0_linear_9_75" x1="89.2223" y1="58.6392" x2="138.157" y2="58.6392" gradientUnits="userSpaceOnUse">
<stop stop-color="#905E26"></stop>
<stop offset="0.5" stop-color="#F5EC9B"></stop>
<stop offset="1" stop-color="#905E26"></stop>
</linearGradient>
<linearGradient id="paint1_linear_9_75" x1="-4.05861" y1="128.444" x2="210.021" y2="128.444" gradientUnits="userSpaceOnUse">
<stop stop-color="#B98947"></stop>
<stop offset="1" stop-color="#FAF0A1"></stop>
</linearGradient>
</defs>
</svg>
