<svg width="600" height="600" viewBox="0 0 600 600" fill="none" xmlns="http://www.w3.org/2000/svg">
<g clip-path="url('#clip0_18_42')">
<path d="M436.275 58.6C440.623 53.6005 446.778 50.5315 453.388 50.0674C459.997 49.6033 466.521 51.7821 471.525 56.125C503.856 84.1921 529.833 118.828 547.725 157.725C550.497 163.752 550.76 170.633 548.458 176.855C546.156 183.076 541.477 188.129 535.45 190.9C529.423 193.672 522.542 193.935 516.32 191.633C510.099 189.331 505.046 184.652 502.275 178.625C487.37 146.184 465.722 117.293 438.775 93.875C433.772 89.5304 430.698 83.3771 430.229 76.7674C429.761 70.1578 431.935 63.6073 436.275 58.6Z" fill="#FF2D55"></path>
<path d="M128.4 56.125C133.406 51.7754 139.935 49.5926 146.55 50.0568C153.165 50.5209 159.325 53.594 163.675 58.6C168.025 63.6059 170.207 70.1347 169.743 76.7501C169.279 83.3654 166.206 89.5254 161.2 93.875C134.253 117.293 112.605 146.184 97.7 178.625C96.3677 181.667 94.4427 184.413 92.0375 186.702C89.6323 188.992 86.795 190.779 83.6913 191.96C80.5876 193.141 77.2798 193.692 73.9609 193.581C70.642 193.469 67.3786 192.698 64.3611 191.311C61.3437 189.924 58.6328 187.95 56.3867 185.505C54.1406 183.059 52.4042 180.19 51.2791 177.065C50.1539 173.941 49.6625 170.624 49.8335 167.307C50.0045 163.991 50.8345 160.742 52.275 157.75C70.1417 118.851 96.0931 84.2068 128.4 56.125Z" fill="#FF2D55"></path>
<path d="M355.875 475C377.5 475 388.925 500.6 374.5 516.7C365.129 527.186 353.648 535.574 340.809 541.313C327.97 547.051 314.063 550.012 300 550C285.937 550.012 272.03 547.051 259.191 541.313C246.352 535.574 234.871 527.186 225.5 516.7C211.7 501.3 221.55 477.225 241.35 475.175L244.1 475.025L355.875 475Z" fill="#FF2D55"></path>
<path d="M300 50C333.95 50 362.65 72.575 371.875 103.525L373.025 107.8L373.225 108.875C400.785 124.423 424.269 146.278 441.755 172.65C459.241 199.022 470.231 229.162 473.825 260.6L474.525 267.775L475 275V348.275L475.525 351.675C478.948 370.096 489.142 386.568 504.1 397.85L508.275 400.775L512.325 403.25C533.825 415.425 526.325 447.4 502.9 449.85L500 450H100C74.3 450 65.325 415.9 87.675 403.25C97.2007 397.859 105.431 390.449 111.788 381.539C118.146 372.629 122.476 362.436 124.475 351.675L125 348.1L125.025 273.85C126.549 241.197 136.054 209.415 152.707 181.287C169.36 153.158 192.654 129.54 220.55 112.5L226.75 108.85L227 107.775C230.536 92.8256 238.574 79.3209 250.027 69.0834C261.481 58.8459 275.799 52.3684 291.05 50.525L295.6 50.1L300 50Z" fill="#FF2D55"></path>
</g>
<defs>
<clipPath id="clip0_18_42">
<rect width="600" height="600" fill="white"></rect>
</clipPath>
</defs>
</svg>
