<svg width="16" height="16" viewBox="0 0 16 16" fill="none" xmlns="http://www.w3.org/2000/svg">
<path d="M3.95476 2.47039C3.95476 3.43779 3.11624 4.22203 2.08187 4.22203C1.0475 4.22203 0.208984 3.43779 0.208984 2.47039C0.208984 1.50299 1.0475 0.71875 2.08187 0.71875C3.11624 0.71875 3.95476 1.50299 3.95476 2.47039Z" fill="white"></path>
<path d="M0.465106 5.50956H3.66662V15.2109H0.465106V5.50956Z" fill="white"></path>
<path d="M8.82106 5.50956H5.61954V15.2109H8.82106C8.82106 15.2109 8.82106 12.1568 8.82106 10.2472C8.82106 9.10105 9.21242 7.94987 10.774 7.94987C12.5387 7.94987 12.5281 9.44981 12.5199 10.6118C12.5091 12.1308 12.5348 13.6808 12.5348 15.2109H15.7363V10.0908C15.7092 6.82139 14.8573 5.31493 12.0546 5.31493C10.3902 5.31493 9.35843 6.07057 8.82106 6.75422V5.50956Z" fill="white"></path>
</svg>
