<svg width="19" height="19" viewBox="0 0 19 19" fill="none" xmlns="http://www.w3.org/2000/svg">
<path d="M17.3011 8.79563H10.6097V2.0898C10.6097 1.79339 10.4922 1.50911 10.283 1.29952C10.0739 1.08992 9.79022 0.972168 9.49444 0.972168C9.19866 0.972168 8.915 1.08992 8.70585 1.29952C8.4967 1.50911 8.3792 1.79339 8.3792 2.0898V8.79563H1.68775C1.39197 8.79563 1.10831 8.91338 0.899157 9.12297C0.690008 9.33257 0.57251 9.61685 0.57251 9.91326C0.57251 10.2097 0.690008 10.494 0.899157 10.7036C1.10831 10.9131 1.39197 11.0309 1.68775 11.0309H8.3792V17.7367C8.3792 18.0331 8.4967 18.3174 8.70585 18.527C8.915 18.7366 9.19866 18.8544 9.49444 18.8544C9.79022 18.8544 10.0739 18.7366 10.283 18.527C10.4922 18.3174 10.6097 18.0331 10.6097 17.7367V11.0309H17.3011C17.5969 11.0309 17.8806 10.9131 18.0897 10.7036C18.2989 10.494 18.4164 10.2097 18.4164 9.91326C18.4164 9.61685 18.2989 9.33257 18.0897 9.12297C17.8806 8.91338 17.5969 8.79563 17.3011 8.79563Z" fill="#12141D"></path>
</svg>
