<svg width="19" height="18" viewBox="0 0 19 18" fill="none" xmlns="http://www.w3.org/2000/svg">
<path d="M17.3011 7.84738H10.6097V1.14156C10.6097 0.845147 10.4922 0.560872 10.283 0.351274C10.0739 0.141677 9.79022 0.0239258 9.49444 0.0239258C9.19866 0.0239258 8.915 0.141677 8.70585 0.351274C8.4967 0.560872 8.3792 0.845147 8.3792 1.14156V7.84738H1.68775C1.39197 7.84738 1.10831 7.96513 0.899157 8.17473C0.690008 8.38433 0.57251 8.6686 0.57251 8.96502C0.57251 9.26144 0.690008 9.54571 0.899157 9.75531C1.10831 9.96491 1.39197 10.0827 1.68775 10.0827H8.3792V16.7885C8.3792 17.0849 8.4967 17.3692 8.70585 17.5788C8.915 17.7884 9.19866 17.9061 9.49444 17.9061C9.79022 17.9061 10.0739 17.7884 10.283 17.5788C10.4922 17.3692 10.6097 17.0849 10.6097 16.7885V10.0827H17.3011C17.5969 10.0827 17.8806 9.96491 18.0897 9.75531C18.2989 9.54571 18.4164 9.26144 18.4164 8.96502C18.4164 8.6686 18.2989 8.38433 18.0897 8.17473C17.8806 7.96513 17.5969 7.84738 17.3011 7.84738Z" fill="#12141D"></path>
</svg>
